<?xml version="1.0" encoding="UTF-8"?>
<svg id="Layer_1" data-name="Layer 1" xmlns="http://www.w3.org/2000/svg" xmlns:xlink="http://www.w3.org/1999/xlink" viewBox="0 0 169.3 217.9">
  <defs>
    <style>
      .cls-1 {
        fill: url(#linear-gradient-2);
      }

      .cls-2 {
        fill: #64ccf2;
      }

      .cls-3 {
        fill: url(#linear-gradient);
      }
    </style>
    <linearGradient id="linear-gradient" x1="12.75" y1="182.62" x2="72.94" y2="122.44" gradientUnits="userSpaceOnUse">
      <stop offset=".16" stop-color="#2790cf"/>
      <stop offset="1" stop-color="#3360ad"/>
    </linearGradient>
    <linearGradient id="linear-gradient-2" x1="44.63" y1="112.49" x2="149.49" y2="112.49" gradientUnits="userSpaceOnUse">
      <stop offset=".61" stop-color="#4296d2"/>
      <stop offset="1" stop-color="#42b2e6"/>
    </linearGradient>
  </defs>
  <path class="cls-2" d="m103.42,62.86l-45.69,32.64-13.11,9.36-20.02-14.31c-1.92-1.37-3.45-3.17-4.5-5.21-1.05-2.04-1.62-4.33-1.62-6.69V29.15c0-7.69,6.23-13.91,13.91-13.91,2.55,0,4.94.69,7,1.89l2.08,1.48,61.95,44.26Z"/>
  <path class="cls-3" d="m88.08,144.42c0,6.19-1.03,12.15-2.94,17.7l-43.26,30.9-2.45,1.75c-2.03,1.16-4.39,1.81-6.89,1.81-7.76,0-14.05-6.28-14.05-14.04v-51.48c0-4.72,2.28-9.15,6.13-11.9l20.01-14.3,36.41,26.01c4.22,3.01,6.87,7.79,7.03,12.95,0,.2,0,.39,0,.59Z"/>
  <path class="cls-1" d="m149.49,105.94c0,6.33-2.95,11.96-7.56,15.6l-1.62,1.16-35.35,25.26-19.82,14.16c1.91-5.55,2.94-11.51,2.94-17.7,0-.2,0-.39,0-.59-.17-5.16-2.81-9.94-7.03-12.95l-36.41-26.01,13.11-9.36,45.69-32.64,36.44,26.05s.03,0,.04.02l2.42,1.73c4.38,3.65,7.16,9.14,7.16,15.29Z"/>
</svg>