<?xml version="1.0" encoding="UTF-8"?>
<svg id="Layer_2" data-name="Layer 2" xmlns="http://www.w3.org/2000/svg" xmlns:xlink="http://www.w3.org/1999/xlink" viewBox="0 0 577.96 181.35">
  <defs>
    <style>
      .cls-1 {
        fill: url(#linear-gradient-2);
      }

      .cls-2 {
        fill: #64ccf2;
      }

      .cls-3 {
        fill: url(#linear-gradient);
      }

      .cls-4 {
        fill: #f1f2f2;
        font-family: Poppins-SemiBold, 'Poppins SemiBold';
        font-size: 85.01px;
        font-weight: 600;
      }
    </style>
    <linearGradient id="linear-gradient" x1="-5.73" y1="167.39" x2="54.45" y2="107.2" gradientUnits="userSpaceOnUse">
      <stop offset=".16" stop-color="#2790cf"/>
      <stop offset="1" stop-color="#3360ad"/>
    </linearGradient>
    <linearGradient id="linear-gradient-2" x1="26.14" y1="97.25" x2="131" y2="97.25" gradientUnits="userSpaceOnUse">
      <stop offset=".61" stop-color="#4296d2"/>
      <stop offset="1" stop-color="#42b2e6"/>
    </linearGradient>
  </defs>
  <g id="Layer_1-2" data-name="Layer 1">
    <g>
      <g>
        <path class="cls-2" d="m84.94,47.62l-45.69,32.64-13.11,9.36-20.02-14.31c-1.92-1.37-3.45-3.17-4.5-5.21-1.05-2.04-1.62-4.33-1.62-6.69V13.91C0,6.23,6.23,0,13.91,0c2.55,0,4.94.69,7,1.89l2.08,1.48,61.95,44.26Z"/>
        <path class="cls-3" d="m69.59,129.18c0,6.19-1.03,12.15-2.94,17.7l-43.26,30.9-2.45,1.75c-2.03,1.16-4.39,1.81-6.89,1.81-7.76,0-14.05-6.28-14.05-14.04v-51.48c0-4.72,2.28-9.15,6.13-11.9l20.01-14.3,36.41,26.01c4.22,3.01,6.87,7.79,7.03,12.95,0,.2,0,.39,0,.59Z"/>
        <path class="cls-1" d="m131,90.71c0,6.33-2.95,11.96-7.56,15.6l-1.62,1.16-35.35,25.26-19.82,14.16c1.91-5.55,2.94-11.51,2.94-17.7,0-.2,0-.39,0-.59-.17-5.16-2.81-9.94-7.03-12.95l-36.41-26.01,13.11-9.36,45.69-32.64,36.44,26.05s.03,0,.04.02l2.42,1.73c4.38,3.65,7.16,9.14,7.16,15.29Z"/>
      </g>
      <text class="cls-4" transform="translate(161.69 121.04)"><tspan x="0" y="0">MEETINGZ</tspan></text>
    </g>
  </g>
</svg>